<svg xmlns="http://www.w3.org/2000/svg" width="341.815" height="190.24" viewBox="0 0 341.815 190.24"><g transform="translate(0 0.027)"><path d="M1890.121,420.513h-111.34a20.051,20.051,0,0,1-20.172-19.922V305.431a74.937,74.937,0,0,1,46.32-68.992c8.069-3.367,6.136-5.409,14.879-5.88,1.4-.075,13.233-.009,14.649-.009a76.293,76.293,0,0,1,53.65,21.915,74.338,74.338,0,0,1,22.2,52.963v95.161A20.051,20.051,0,0,1,1890.121,420.513ZM1782.306,309.4H1886.6v-3.969c0-28.386-23.393-51.478-52.147-51.478s-52.145,23.092-52.145,51.478Z" transform="translate(-1568.491 -230.55)" fill="#4f75ba"/><path d="M1786.868,420.712H1675.53a20.052,20.052,0,0,1-20.18-19.922V305.629c0-41.355,33.958-74.879,75.849-74.879s75.85,33.525,75.85,74.879V400.79A20.052,20.052,0,0,1,1786.868,420.712ZM1679.053,309.6h104.292v-3.969c0-28.386-23.393-51.478-52.147-51.478s-52.146,23.093-52.146,51.478Z" transform="translate(-1478.67 -230.748)" fill="#739af0"/><path d="M2184.821,1071.919a9.158,9.158,0,0,0-2.279-6.047,9.467,9.467,0,0,0-14.213,0,9.173,9.173,0,0,0-1.918,8.592,9.32,9.32,0,0,0,6.222,6.3V1094.8c0,1.132,1.255,2.056,2.8,2.056s2.8-.917,2.8-2.056v-14.032a9.281,9.281,0,0,0,6.582-8.844Z" transform="translate(-1922.906 -955.776)" fill="#4f75ba"/><path d="M1227.383,1037.833c-.178,1.19-1.554,2.57-3.022,3.6a14.31,14.31,0,0,0-2.773,2.826c-.208.234-.336.362-.336.362l-1.692-1.936a.444.444,0,0,0,.078-.073,13.782,13.782,0,0,0,1.972-2.561,5.469,5.469,0,0,1,3.351-2.9A8.252,8.252,0,0,1,1227.383,1037.833Z" transform="translate(-1099.594 -933.544)" fill="#ffb27d"/><path d="M601.261,1231.59l1.14.914s3.123-1.1,3.821,2.554c0,0,.187,1.56-.812,1.562a19.8,19.8,0,0,0-2-.128,2.56,2.56,0,0,1-2.8-1.831l-.678-.961Z" transform="translate(-560.605 -1103.003)" fill="#ea8e50"/><path d="M382.653,1087.509a2.282,2.282,0,0,0,.837-1.63s-10.531-8.512-11.6-9.205c-.728-.473-8.069-7.412-12.1-11.4-1.944-1.917-4.025-1.255-6.573-.533l-2.1.594a3.447,3.447,0,0,0-1.114,5.918c5.856,4.788,15.6,10.174,17.421,11.306,4.525,2.81,13.383,6.149,13.383,6.149A5.628,5.628,0,0,0,382.653,1087.509Z" transform="translate(-342.127 -956.96)" fill="#992525"/><path d="M679.024,1653.88a8.024,8.024,0,0,0,6.472.892s3.157-.711,3.85.844c0,0-4.843,2.428-6.068,3.093a14.385,14.385,0,0,0-2.568,1.9,1.281,1.281,0,0,1-1.839-.14c-.213-.257-.457-.567-.724-.924-.747-1-2.487-4.226-2.487-4.226Z" transform="translate(-626.479 -1471.038)" fill="#233862"/><path d="M449.659,1340.654s-1.555,3.542-5.147,2.891a99.881,99.881,0,0,1-12.364-12.185,28.112,28.112,0,0,1-3.833-5.919c-3.334-7.621-12.334-18.988-18.056-24.749l14.316-5.112s4.585,9.106,10.686,20.29C439.66,1323.925,444.844,1333.063,449.659,1340.654Z" transform="translate(-395.619 -1158.772)" fill="#2b478b"/><path d="M435.263,1315.865l-3.105,15.494a27.821,27.821,0,0,1-3.842-5.919c-3.334-7.621-12.334-18.988-18.056-24.749l14.316-5.112S429.162,1304.681,435.263,1315.865Z" transform="translate(-395.619 -1158.772)" fill="#233862"/><path d="M478.047,1659.369s-.156,2.827,3.315,3.2c0,0,1.983.01,1.99,1.809l-10.089.032a7.668,7.668,0,0,1-.364-2.281,17.635,17.635,0,0,1,1.171-4.314Z" transform="translate(-450.104 -1474.472)" fill="#233862"/><path d="M391.24,1291.287s6.377,6.918,10.426,19.381c2.2,6.781-4.034,23.83-5.254,29.754a19.366,19.366,0,0,1-7.047-.741s-.217-12.235,1.456-21.665c.937-5.277-8.4-11.287-12.475-20.822-2.775-6.487.6-6.378,4.749-6.533Z" transform="translate(-366.978 -1154.484)" fill="#2b478b"/><path d="M355.361,997.4c-3.548,1.979-10.811.154-10.811.154a9.9,9.9,0,0,0,1.609-8.692l2.786,1.4,2.993,1.5a24.064,24.064,0,0,1,.328,2.648c.035.438.065.928.086,1.462a9.346,9.346,0,0,1,3.009,1.53Z" transform="translate(-338.461 -891.458)" fill="#ffb07b"/><path d="M350.5,1074.435c0,.615-.718.911-.872.94-1.432.257-5.427,1.8-9.027,2.144a29.225,29.225,0,0,1-8.936-.6c-.41-.081-1.372-.337-1.439-.723-.085-.423-11.925-23.827-2.721-33.881.216-.236,2.033.189,3.695.578a6.909,6.909,0,0,0,4.2-.339l1.562.809c1.913,1.052,5.534,4.792,5.957,7.727.216,1.493,1.08,2.6,1.33,3.91.092.486.187.961.285,1.422q.282,1.361.582,2.59c.541,2.22,1.113,4.131,1.675,5.782.6,1.752,1.182,3.212,1.706,4.43.678,1.582,1.251,2.764,1.61,3.668A4.524,4.524,0,0,1,350.5,1074.435Z" transform="translate(-320.589 -937.989)" fill="#bc3f3f"/><path d="M374.142,1126.771a46.135,46.135,0,0,1-22.5-22.7s13.579,4.945,16.929,6.233q.282,1.36.582,2.59c.541,2.22,1.113,4.13,1.675,5.781.6,1.752,1.182,3.212,1.706,4.43C373.21,1124.684,373.782,1125.866,374.142,1126.771Z" transform="translate(-344.628 -991.866)" fill="#992525"/><path d="M518.5,834.619H509.27a15.967,15.967,0,0,1-16.05-15.845V789.1a15.966,15.966,0,0,1,16.05-15.845H518.5a15.966,15.966,0,0,1,16.05,15.845v29.678A15.967,15.967,0,0,1,518.5,834.619Zm-9.227-52.01a6.536,6.536,0,0,0-6.57,6.487v29.678a6.536,6.536,0,0,0,6.57,6.486H518.5a6.536,6.536,0,0,0,6.57-6.486V789.1a6.536,6.536,0,0,0-6.57-6.487Z" transform="translate(-467.782 -703.549)" fill="#f99746"/><path d="M865.436,980.463H780.82V969.53h84.616A5.5,5.5,0,0,1,870.974,975h0A5.5,5.5,0,0,1,865.436,980.463Z" transform="translate(-717.953 -874.612)" fill="#f99746"/><path d="M1051.631,806.94h8.887v21.425a4.416,4.416,0,0,1-4.444,4.388h0a4.416,4.416,0,0,1-4.444-4.388V806.94Z" transform="translate(-914.768 -703.29)" fill="#f99746"/><path d="M594.633,1245.074l1.445.523a3.111,3.111,0,0,1,4.693,1.265s.651,1.434-.38,1.745-.651.019-2.1.5-2.877.129-3.424-.889l-.983-.712Z" transform="translate(-555.342 -1114.675)" fill="#ffb07b"/><path d="M370.148,1094.023c.534-1.376.781-2,.781-2s-10.912-8.78-12.024-9.534c-.759-.514-8.3-6.079-11.98-10.417a7.753,7.753,0,0,0-7.482-2.56l-2.292.474a3.35,3.35,0,0,0-1.519,5.846c6.044,5.115,16.237,11.049,18.137,12.281,4.718,3.063,15.154,7.355,15.154,7.355A2.667,2.667,0,0,0,370.148,1094.023Z" transform="translate(-329.667 -961.607)" fill="#bc3f3f"/><path d="M365.347,1003.859a7.492,7.492,0,0,1-5.757-2.65,27.518,27.518,0,0,0,2.438-1.5l2.993,1.5a24.072,24.072,0,0,1,.327,2.648Z" transform="translate(-351.543 -900.914)" fill="#ea8e50"/><path d="M344.924,944.878s-5.288,3.745-7.6.459-4.555-5.011-1.274-7.545,4.823-1.732,5.864-.82S346.24,943.818,344.924,944.878Z" transform="translate(-329.633 -845.467)" fill="#ffb07b"/><path d="M310.6,905.262a8.327,8.327,0,0,0-.617-2.152s-.332,1.357-2.844,1.169-6.491.244-7.819,3.069c-.085.18-.159.365-.226.555a6.51,6.51,0,0,1-.3-1.566,4.762,4.762,0,0,0,0,2.738h0l-.02.128a5.487,5.487,0,0,0-1.019,1.9,1.736,1.736,0,0,1,.938-.825c-.012,2.2.892,4.348,2.473,4.988,2.319.937,2.3.222,4.632,1.749,0,0,.625-.771.2-1.285s-2.037-1.263-1.136-2.011,1.231.092,1.562-.421-1.326-2.012.806-3.415S310.791,906.525,310.6,905.262Z" transform="translate(-297.76 -816.725)" fill="#233862"/><path d="M1000.938,1280.792l-1.952.717s-8.459-11.585-9.5-21.777a15.123,15.123,0,0,1,.279-5.21s-.083-.466-.228-1.291c-.066-.385-.15-.847-.243-1.379-.275-1.555-.651-3.683-1.087-6.108-1-5.578-2.285-12.709-3.286-17.951l.521-.166,5.678-1.809,1.171-3.679,4.228-1.1s.945,1.824,1.789,10.441c.156,1.131.3,2.377.4,3.726a72.794,72.794,0,0,1-.4,15.095q-.292,2.246-.742,4.633a20.174,20.174,0,0,0-.163,4.574C997.837,1267.844,1000.938,1280.792,1000.938,1280.792Z" transform="translate(-895.491 -1093.808)" fill="#bc3f3f"/><path d="M998.718,1235.211l-9.182,18.02c-.066-.385-.15-.847-.243-1.379-.275-1.555-.651-3.683-1.087-6.108-1-5.578-2.285-12.709-3.286-17.951l.521-.166,5.678-1.809,1.171-3.68,4.228-1.1s.945,1.824,1.789,10.441C998.465,1232.612,998.611,1233.858,998.718,1235.211Z" transform="translate(-895.491 -1093.808)" fill="#992525"/><path d="M937.9,1209.1l-.212-1.8c-3.561.934-13.077-2.609-13.077-2.609s-3.449,2.994-2.993,10.17c.22,3.5.625,18.386,1.041,22.791.152,1.6.286,2.733.341,3.186h0a.62.62,0,0,1-.1.386,20.564,20.564,0,0,0-1.562,3.232c-4.141,10.891.638,24.3.638,24.3l1.239-.493s2.728-14.912,4.94-21.506a12.98,12.98,0,0,1,1.063-2.523,28.259,28.259,0,0,0,2.661-7,170.5,170.5,0,0,0,3.579-18.583C935.569,1218.653,937.9,1209.1,937.9,1209.1Z" transform="translate(-838.712 -1079.559)" fill="#bc3f3f"/><path d="M1119.863,1037.767a9.893,9.893,0,0,1,3.17,2.295s-6.074,10.458-9.569,11.978c-1.92.835-7.924-5.5-9.165-9.047-.3-.867.816-3.768.449-4.378a6.05,6.05,0,0,1-.816-2.269,1.068,1.068,0,0,1-.038-.319,4.955,4.955,0,0,1,.109-1.814c.139-.352.532-.5,1.117-.495h.206c3.146,1.828,7.279,10.8,7.959,11.012C1115.068,1042.505,1119.863,1037.767,1119.863,1037.767Z" transform="translate(-998.949 -930.552)" fill="#2c3a64"/><path d="M1032.866,980.49a11.2,11.2,0,0,1-4.1.949c-6.123.33-7.513-4.968-7.766-8.479a5.194,5.194,0,0,1,2.1-.257c.435.023.888.068,1.261.113.75-.385,2.094-2.263,2.872-5.4l.26.121,4.417,2.056s-.469,1.413-.815,2.778a5.476,5.476,0,0,0-.3,2.377c.349.14.557.227.557.227A29.567,29.567,0,0,1,1032.866,980.49Z" transform="translate(-926.876 -872.773)" fill="#ffb27d"/><path d="M967.512,1019.96c-.047.121-.1.239-.152.36-1.551,3.3-4.425,16.959-4.425,16.959.409,2.455-18.692-.482-18.741-2.717-.673-2.372,2.387-6.18,4.113-8.094a5.53,5.53,0,0,0,.579-.771,5.322,5.322,0,0,0,.781-2.255c.338-3.168-.923-10.477-.583-11.889.13-.552,2.663,2.607,2.965,2.289a1.745,1.745,0,0,0,.565-1.1,5.737,5.737,0,0,0-.023-.92c-.014-.147-.034-.292-.056-.438-.238-1.534-3.209-.879-3.209-.879,1.088-2.588,6.887-2.382,6.886-2.313s0,.161,0,.423c-.009,1.054,0,3.758.342,4.269.428.642,8.254,3.43,8.667,2.57s-.708-4.837-.75-4.988a15.625,15.625,0,0,1,1.9.979C967.343,1013.388,968.726,1016.764,967.512,1019.96Z" transform="translate(-859.983 -908.279)" fill="#2b478b"/><path d="M1039.338,856.354c-.009-.257-.215-3.083-4.572-3.234,0,0,2.143.257,2.513,1.182,0,0-1.459-1.149-2.647-.779s-1.885,2.424-1.892,3.1.651,2.853,1.407,3.04a2.325,2.325,0,0,0,.911,0,10.47,10.47,0,0,0-.586,1.028c-1.739,3.523.055,6.966,1.527,6.586.944-.244,1.21,1.346,1.21,1.346l9.171-7.33S1043.014,854.418,1039.338,856.354Z" transform="translate(-937.088 -773.158)" fill="#bc3f3f"/><path d="M1075.347,970.3s-.468,1.413-.815,2.778c-2.583-.712-3.367-3.392-3.6-4.828Z" transform="translate(-970.308 -873.496)" fill="#ed985f"/><path d="M1073.444,920.654s-6.178-1.413-5.228-5.2.791-6.515,4.776-5.774,4.386,2.372,4.38,3.712S1075.076,920.924,1073.444,920.654Z" transform="translate(-967.861 -822.348)" fill="#ffb27d"/><path d="M1067.337,906.567c-.665-1.372-1.446-1.3-1.935-1.055a4.474,4.474,0,0,0-5.75-.486,7.492,7.492,0,0,1-3.472,3.681s.95.96,3.7.939a4.482,4.482,0,0,0,2.455-.912,14.832,14.832,0,0,1-3.222,2.372c3.444-.65,5.754-4.587,5.986-5.011a4.86,4.86,0,0,1,.9,2.1c.064,1.038-.3,3.055.3,3.132C1066.308,911.329,1068.333,908.623,1067.337,906.567Z" transform="translate(-957.477 -817.669)" fill="#bc3f3f"/><path d="M927.034,1674.219h-9.815a5.246,5.246,0,0,1,.277-2.6c.491-1.075,1.26-1.563,1.075-2.864a3.561,3.561,0,0,0,3.058,1.156,10.766,10.766,0,0,0,1.7,2.184C923.973,1672.549,926.831,1672.388,927.034,1674.219Z" transform="translate(-836.554 -1484.006)" fill="#233862"/><path d="M1088.549,1677.165h-9.812a3.984,3.984,0,0,1,.277-2.6,1.845,1.845,0,0,0-.07-2.229,3.89,3.89,0,0,0,1.653.307,3.48,3.48,0,0,0,1.459-.507,34.99,34.99,0,0,0,2.8,2.9C1085.492,1675.495,1088.351,1675.334,1088.549,1677.165Z" transform="translate(-977.009 -1486.952)" fill="#233862"/><path d="M959.6,785.3h14.932l-.829-5.717-13.333.528Z" transform="translate(-834.715 -679.445)" fill="#f99746"/><path d="M1231.068,967.02c-.7.685-.681,2.879-2.149,3.912a14.319,14.319,0,0,0-2.773,2.826c-.207.234-.334.362-.334.362l-1.692-1.936a.476.476,0,0,0,.077-.073,13.715,13.715,0,0,0,1.972-2.561,5.47,5.47,0,0,1,3.353-2.9A2.868,2.868,0,0,1,1231.068,967.02Z" transform="translate(-1103.561 -872.101)" fill="#ffb27d"/><path d="M1014.908,997.85l2.488,2.749s-6.65,5.716-8.039,6.9a15.574,15.574,0,0,1-2.677,1.892,1.921,1.921,0,0,1-.232.1c-1.952.844-6.169.75-10.381.128-.583-.083-1.158-.18-1.72-.27a40.7,40.7,0,0,1-5.682-1.363,15.958,15.958,0,0,1-2.5-.993,6.709,6.709,0,0,1-.651-.362c-3.294-1.949-3.135-3.759-3.073-4.408a2.248,2.248,0,0,1,1.637-1.86c2.615-.838,11.385,2.5,12.677,2.74.781.162,2.793.867,3.471.991a21.635,21.635,0,0,0,3.106.385,7.347,7.347,0,0,0,2.328-.727C1007.421,1002.993,1014.908,997.85,1014.908,997.85Z" transform="translate(-893.312 -899.293)" fill="#253d78"/><path d="M1238.078,1042.248a2.167,2.167,0,0,1-.228-.88,5.067,5.067,0,0,1,1.161-1.708c.237-.166.548-.556.622-.293a4.6,4.6,0,0,1-.7,2.184A2.127,2.127,0,0,1,1238.078,1042.248Z" transform="translate(-1115.504 -935.399)" fill="#ffb27d"/><path d="M2375.6,801.665a13.5,13.5,0,0,0,4.727,4.985h10.953S2374,798.922,2375.6,801.665Z" transform="translate(-2105.094 -727.8)" fill="#ed7d2b"/><path d="M2379.208,961.605c.285.323.533.3.391.69,0,0-.064.191-.065.193a4.694,4.694,0,0,1-1.757,2.008c-.13.1-.26.186-.358.272-.026.023-.2.058-.228.081s-.176.335-.2.352a30.711,30.711,0,0,0-2.423,2.329c-1.916,1.967-1.86,1.764-2.234,1.585-.318-.153-.449-.514.26-1.692l.1-.171c.095-.155.19-.315.284-.471.838-1.413.622-2.072.424-4.173-.162-1.708-2.69-9.536-2.69-9.536l3.67-.623s1.106,6.234,2.323,7.195c.65.514,1.381.514,2.005.9l.13.081C2379.216,960.855,2378.922,961.282,2379.208,961.605Z" transform="translate(-2100.94 -859.726)" fill="#ffb27d"/><path d="M2384.948,1016.264a.992.992,0,0,1,.18,1.069,7.756,7.756,0,0,1-2.13,2.3c-.13.1-.238.2-.338.288l-.077.068-.059.053c-.934.851-.583,1.046-2.263,2.771-1.914,1.967-3.232,2-3.607,1.824-.318-.153.327-1.2,1.041-2.369a8.14,8.14,0,0,0,3.413-2.483c1.154-1.452,1.923-3.319,2.707-4.4l.13.081A4.848,4.848,0,0,1,2384.948,1016.264Z" transform="translate(-2106.029 -914.571)" fill="#bc3f3f"/><path d="M2144.127,951.5c-.227,1.118-.962.8-2.765.369s-1.386-.008-3.954-.289-2.8-.682-2.878-1.06c-.071-.334.466-.56,1.822-.716.171-.018.343-.04.514-.06,1.537-.19,2.662-1.169,4.058-1.972,1.321-.762,3.294-3.863,3.294-3.863l3.522.275s-1.848,2.77-2.563,3.975a4.155,4.155,0,0,0-.346,2.369C2144.866,950.917,2144.207,951.1,2144.127,951.5Z" transform="translate(-1895.482 -852.283)" fill="#ffb27d"/><path d="M2136.287,992.169c-1.8-.435-1.374.082-3.942-.2s-3.346-1.226-3.424-1.6c-.071-.334,1.2-.452,2.56-.608l.012.027a7.323,7.323,0,0,0,3.678,1.128c1.741.041,3.587-.451,4.789-.432a4.414,4.414,0,0,1-.026,1.188C2139.706,992.791,2138.092,992.6,2136.287,992.169Z" transform="translate(-1890.607 -892.243)" fill="#bc3f3f"/><path d="M2317.24,793.838l3.292,8.744L2324.827,814a7.034,7.034,0,0,0,2.283-.206,10.013,10.013,0,0,0,2.212-1.061s-1.193-12.259-3.42-19.3a12.444,12.444,0,0,0-1.915-4.089C2320.535,785.32,2317.24,793.838,2317.24,793.838Z" transform="translate(-2054.42 -716.636)" fill="#ed7d2b"/><path d="M2212.887,711.706c2.156-.687,8.307.2,14.486,1.389l1.294-2.107,13.344-1.028s4.4,9.636,1.993,15.784a2.793,2.793,0,0,1-2.5,1.5h-10.479c-6.637,0-14.046-4.5-15-4.693-1.569-.31-2.2,2.788-3.765,6.039s-14.746,14.4-14.746,14.4a11.77,11.77,0,0,1-2.863-.29,2.791,2.791,0,0,1-1.23-.771S2208.018,713.254,2212.887,711.706Z" transform="translate(-1946.714 -648.39)" fill="#f99746"/><path d="M2441.631,432.085c4.752,2.584,14.392,7.939,14.446,7.9,0,0,3.544,1.318,5.553,0,3.351-2.2,5.148-8.108-.98-13.2-3.056-2.537-5.227-3.155-5.557-7.206-.178-2.2-3.222-9.453-8.279-8.783a7.85,7.85,0,0,1-1.274.083,4.775,4.775,0,0,0-2.567.654C2440.109,413.223,2434.507,431.091,2441.631,432.085Z" transform="translate(-2159.606 -387.631)" fill="#233862"/><path d="M2491.367,509.587a6.364,6.364,0,0,0,3.915.118c1.485-.642,2.6-3.056,2.586-3.058-.674-.031-1.416-.614-1.986-4.438l-.287.1-4.834,1.716s.35,1.531.577,2.988C2491.528,508.242,2491.63,509.414,2491.367,509.587Z" transform="translate(-2205.357 -467.332)" fill="#ffb27d"/><path d="M2490.76,504.727s.35,1.531.577,2.988c2.776-.493,3.865-3.223,4.257-4.7Z" transform="translate(-2205.357 -468.029)" fill="#ed975d"/><path d="M2462.544,450.3s6.613-.876,6-4.934-.178-6.9-4.425-6.515-4.833,2.056-4.96,3.461S2460.808,450.422,2462.544,450.3Z" transform="translate(-2177.862 -412.081)" fill="#ffb27d"/><path d="M2461,437.658s4.234,3.6,7.114,3.892,3.969-.622,3.969-.622a11.123,11.123,0,0,1-2.719-3.636,2.024,2.024,0,0,0-1.67-1.178C2465.644,435.938,2461.747,435.858,2461,437.658Z" transform="translate(-2179.47 -409.652)" fill="#233862"/><path d="M2458.508,440.908a10.292,10.292,0,0,0-1.862,2.354,7.808,7.808,0,0,0-.218,4.2s-2.212-4.24-.957-6.3C2456.8,438.987,2458.508,440.908,2458.508,440.908Z" transform="translate(-2174.326 -413.224)" fill="#233862"/><path d="M2452.622,548.265c.2,13.215.055,10.453,1.519,11.707a5.673,5.673,0,0,0,2.65.568c4.1.268,11.323-.4,11.594-1.147.947-2.591.279-3.4,1.069-7.363.083-.423.185-.879.3-1.376.658-2.725,1.3-3.651-1.041-8.029-2.119-3.965-4.321-7.183-4.519-7.066-5.6,3.276-6.041.523-6.041.523S2452.524,541.82,2452.622,548.265Z" transform="translate(-2172.182 -496.393)" fill="#bc3f3f"/><path d="M2342.54,837.656l4.295,11.417a7.036,7.036,0,0,0,2.283-.206,10.007,10.007,0,0,0,2.212-1.061s-1.194-12.259-3.42-19.3Z" transform="translate(-2076.427 -751.709)" fill="#f99746"/><path d="M2421.148,539.63s-5.752.964-6.427,3.409l-4.65,16.818s2.924.514,4.275-.815,4.7-12.374,4.7-12.374Z" transform="translate(-2135.169 -499.944)" fill="#bc3f3f"/><path d="M2484.66,634.934c4.1.269,11.322-.4,11.594-1.147.948-2.591.279-3.4,1.069-7.363l-1.979-5.5s.328,6.128-1.5,7.741-7.5,3.112-8.387,4.458A4.991,4.991,0,0,0,2484.66,634.934Z" transform="translate(-2200.052 -570.79)" fill="#992525"/><path d="M2472.882,705.8s-4.049-.89-4.7-.536a9.44,9.44,0,0,0-2.449,2.1c-.2.45,1.455-.342,1.993-.484a4.85,4.85,0,0,1,1.72.371,5.781,5.781,0,0,0,3.082.306Z" transform="translate(-2183.57 -644.225)" fill="#ffb27d"/><path d="M2519.144,535.55s5.437.33,7.319,2.923c2.65,3.647,7.906,19.2,4.894,21.269-3.392,2.336-15.439.61-15.439.61a4.772,4.772,0,0,1,.156-2.744c.557-.9,9.624-2.343,10.041-2.753s-5.232-8.054-5.232-9.293S2519.144,535.55,2519.144,535.55Z" transform="translate(-2227.119 -496.388)" fill="#bc3f3f"/><path d="M2472.565,714.45a7.731,7.731,0,0,1-1.127,1.209.839.839,0,0,1-.458.1l.573-1.016Z" transform="translate(-2188.151 -652.304)" fill="#ffb27d"/><path d="M2468.176,705.79l-2.466,1.182a.445.445,0,0,0,.408.157,5.984,5.984,0,0,0,1.07-.29Z" transform="translate(-2183.568 -644.756)" fill="#ffb27d"/><path d="M2007.084,408.44h-19.514l-5.871-14.41h19.484Z" transform="translate(-1723.797 -343.43)" fill="#163560"/><path d="M2025.05,501.82h25.768v.561h-25.539Z" transform="translate(-1761.505 -437.371)" fill="#11294a"/><path d="M2362.158,674.437a.669.669,0,0,1,.663-.917,1.329,1.329,0,0,1,1.2.917.667.667,0,0,1-.663.917A1.327,1.327,0,0,1,2362.158,674.437Z" transform="translate(-2093.459 -616.632)" fill="#fff"/></g></svg>