<svg xmlns="http://www.w3.org/2000/svg" width="50.62" height="33.879" viewBox="0 0 50.62 33.879"><g transform="translate(-65 -234)"><g transform="translate(-3693 -193)"><g transform="translate(3758 427)"><g transform="translate(0 12.906)"><ellipse cx="9" cy="8.5" rx="9" ry="8.5" transform="translate(1 2.094)" fill="#fff"/><path d="M22.486,45.972A10.486,10.486,0,1,1,32.972,35.486,10.5,10.5,0,0,1,22.486,45.972Zm0-17.746a7.26,7.26,0,1,0,7.26,7.26A7.269,7.269,0,0,0,22.486,28.227Z" transform="translate(-12 -25)" fill="#fff"/></g><g transform="translate(26.421 12.906)"><ellipse cx="9" cy="8.5" rx="9" ry="8.5" transform="translate(1.574 2.094)" fill="#fff"/><path d="M39.486,45.972A10.486,10.486,0,1,1,49.972,35.486,10.5,10.5,0,0,1,39.486,45.972Zm0-17.746a7.26,7.26,0,1,0,7.26,7.26A7.269,7.269,0,0,0,39.486,28.227Z" transform="translate(-29 -25)" fill="#fff"/></g><path d="M13.613,41.2A1.612,1.612,0,0,1,12,39.586,22.611,22.611,0,0,1,34.586,17a1.613,1.613,0,1,1,0,3.227A19.381,19.381,0,0,0,15.227,39.586,1.612,1.612,0,0,1,13.613,41.2Z" transform="translate(-12 -17)" fill="#fff"/><path d="M30.613,41.2A1.612,1.612,0,0,1,29,39.586,22.611,22.611,0,0,1,51.586,17a1.613,1.613,0,1,1,0,3.227A19.381,19.381,0,0,0,32.227,39.586,1.612,1.612,0,0,1,30.613,41.2Z" transform="translate(-2.579 -17)" fill="#fff"/></g></g></g></svg>