<svg xmlns="http://www.w3.org/2000/svg" width="50.811" height="33.345" viewBox="0 0 50.811 33.345"><g transform="translate(-314.189 -592.655)"><g transform="translate(-18.811 -12.345)"><g transform="translate(333 605)"><g transform="translate(30.169 12.703)"><circle cx="8.5" cy="8.5" r="8.5" transform="translate(1.642 1.642)" fill="#fff"/><path d="M22.321,45.642A10.321,10.321,0,1,0,12,35.321,10.333,10.333,0,0,0,22.321,45.642Zm0-17.466a7.145,7.145,0,1,1-7.145,7.145A7.154,7.154,0,0,1,22.321,28.176Z" transform="translate(-12 -25)" fill="#fff"/></g><g transform="translate(3.176 12.703)"><circle cx="8.5" cy="8.5" r="8.5" transform="translate(1.635 1.642)" fill="#fff"/><path d="M39.321,45.642A10.321,10.321,0,1,0,29,35.321,10.333,10.333,0,0,0,39.321,45.642Zm0-17.466a7.145,7.145,0,1,1-7.145,7.145A7.154,7.154,0,0,1,39.321,28.176Z" transform="translate(-29 -25)" fill="#fff"/></g><path d="M34.23,40.818a1.586,1.586,0,0,0,1.588-1.588A22.254,22.254,0,0,0,13.588,17a1.588,1.588,0,1,0,0,3.176A19.075,19.075,0,0,1,32.642,39.23,1.586,1.586,0,0,0,34.23,40.818Z" transform="translate(14.993 -17)" fill="#fff"/><path d="M51.23,40.818a1.586,1.586,0,0,0,1.588-1.588A22.254,22.254,0,0,0,30.588,17a1.588,1.588,0,1,0,0,3.176A19.075,19.075,0,0,1,49.642,39.23,1.586,1.586,0,0,0,51.23,40.818Z" transform="translate(-29 -17)" fill="#fff"/></g></g></g></svg>